<svg width="180" height="140" viewBox="0 0 180 140" fill="none" xmlns="http://www.w3.org/2000/svg">
<g id="Frame 1597878156" clip-path="url(#clip0_266_5501)">
<rect width="180" height="140" fill="#F6F8F8"/>
<path id="Screenshot 2023-07-12 at 16.14 1 (Traced)" fill-rule="evenodd" clip-rule="evenodd" d="M98.8076 9.21636C98.2401 9.87109 97.5457 10.5288 97.2648 10.6782C96.8324 10.9078 96.7741 10.8244 96.8856 10.1375C96.9993 9.4381 96.9068 9.50231 96.2196 10.6005C95.1432 12.3202 94.3181 12.3877 95.3044 10.6755C96.2014 9.11824 95.7059 9.09453 94.3523 10.6299C92.2528 13.0121 89.1752 14.7593 90.8901 12.5959C91.7098 11.5619 91.4987 11.3435 90.4088 12.0972C89.4948 12.7291 87.577 13.4586 87.3699 13.253C87.3001 13.1837 87.7239 12.9008 88.312 12.6238C90.5454 11.5721 90.0707 11.2946 87.5081 12.1542C86.0982 12.6271 84.1248 13.094 83.1231 13.1918C80.8419 13.4145 79.9651 13.7439 78.4165 14.9604C77.1941 15.9206 77.1491 15.6415 78.3183 14.3525C79.2447 13.3314 78.7213 13.2152 77.1412 14.0917C75.3961 15.0597 75.3084 15.0624 75.9264 14.1262C76.7854 12.8255 76.0056 13.3071 73.9971 15.3183C72.9305 16.3866 72.0059 17.209 71.9427 17.1466C71.8795 17.0839 72.0522 16.6023 72.3261 16.0766C73.1352 14.5241 72.6741 14.7494 71.1282 16.6626C70.3324 17.6471 69.5397 18.4243 69.3664 18.3897C69.1932 18.3552 68.9595 18.7438 68.8473 19.2533C68.509 20.789 68.2136 21.0576 67.7585 20.2429L67.3588 19.5273L67.3434 20.4274C67.3286 21.2925 66.8817 22.3622 66.6574 22.0691C66.5978 21.9913 66.3956 21.5902 66.2078 21.1776C65.9006 20.5025 65.8646 20.5868 65.8462 22.0205C65.8344 22.9236 65.7035 23.5387 65.5439 23.4406C65.3888 23.3455 65.2137 23.6414 65.1544 24.0981C65.0683 24.7648 64.9168 24.5133 64.3856 22.8204C64.0219 21.661 63.5209 20.4457 63.2726 20.1199C62.846 19.5594 62.8209 19.5876 62.8119 20.6348C62.8064 21.2439 62.9561 21.8368 63.1444 21.9523C63.5777 22.2179 63.3252 26.8604 62.8336 27.667C62.5697 28.1005 62.5255 27.5427 62.641 25.2284C62.7828 22.391 62.7683 22.2944 62.3768 23.4532C62.1491 24.1272 61.7606 25.0723 61.5136 25.5536C61.0105 26.5342 59.7917 30.0398 59.0452 32.6548C58.4995 34.565 58.0919 34.9668 58.3595 33.33C58.4542 32.7523 58.4148 32.2797 58.2721 32.2797C57.8736 32.2797 57.0576 36.2402 57.0576 38.175C57.0576 40.1047 56.6443 40.0807 56.2032 38.1258L55.9335 36.9307L55.5278 37.8308C54.9152 39.1904 54.9527 45.3671 55.581 46.5325C55.8476 47.0276 56.1509 48.2759 56.2546 49.3063C56.3583 50.3367 56.6525 51.6767 56.9083 52.2843C57.369 53.379 57.3678 53.3841 56.7734 52.8503C56.1805 52.3173 56.1745 52.3339 56.2537 54.3388C56.3223 56.0801 56.4405 56.4561 57.09 57.0007C58.1436 57.884 58.8717 59.1239 58.8717 60.0342C58.8717 60.4579 59.0688 61.2729 59.3098 61.8451L59.7479 62.8857H58.8611C58.3169 62.8857 57.6079 63.2104 57.0262 63.7262C56.1769 64.4796 56.0629 64.7836 55.9278 66.6568C55.6566 70.4202 57.3627 75.0129 60.5192 79.0168C62.2952 81.2694 64.0321 82.3895 65.7495 82.3895C66.7892 82.3895 66.8745 82.5389 67.2104 84.94C67.7594 88.8684 69.7601 92.9864 72.685 96.2093L74.6671 98.3934L74.5151 101.569C74.3324 105.375 73.6334 107.743 71.7607 110.895C69.8414 114.126 67.2863 117 63.9245 119.71C61.584 121.597 60.9071 122.004 60.5709 121.727C60.2389 121.454 59.3146 121.818 56.2017 123.448C54.0302 124.586 51.8403 125.862 51.3351 126.284C50.3468 127.109 48.0613 128.04 41.638 130.234C29.451 134.397 24.8318 137.332 22.2915 142.524C21.2112 144.731 20.6921 146.823 21.1903 146.959C21.3781 147.01 52.2373 147.014 89.766 146.968L158 146.883L157.838 145.768C157.42 142.887 154.862 139.16 151.744 136.889C148.957 134.858 143.878 132.594 135.516 129.654C131.167 128.125 127.891 126.677 127.057 125.915C126.721 125.608 125.104 124.661 123.462 123.811C121.822 122.961 120.142 122.046 119.729 121.777C119.153 121.403 118.855 121.366 118.444 121.622C117.997 121.898 117.515 121.643 115.526 120.078C108.628 114.649 104.853 108.07 104.833 101.441C104.826 98.8189 105.197 97.8956 107.096 95.8123C109.976 92.6548 111.147 90.2312 112.207 85.2401L112.845 82.2395L114.479 82.1471C116.021 82.06 116.206 81.9592 117.802 80.3407C122.345 75.733 125.024 67.6563 123.097 64.3809C122.344 63.1026 121.182 62.631 119.935 63.0978C118.879 63.4933 118.848 63.3787 119.622 61.9468C119.943 61.3527 120.3 60.3655 120.416 59.7531C120.531 59.1404 120.94 58.3458 121.322 57.9869C121.705 57.6281 122.077 56.9295 122.149 56.4345C122.271 55.5931 122.294 55.5784 122.508 56.2094C122.866 57.2626 123.172 57.0118 123.424 55.4593C123.846 52.8671 123.764 51.2893 123.175 50.643C122.848 50.2845 122.749 49.9685 122.928 49.8581C123.094 49.7563 123.315 49.8107 123.419 49.9784C123.524 50.1461 123.723 50.2833 123.861 50.2833C124.161 50.2833 124.612 48.8166 124.502 48.1954C124.46 47.9551 124.582 47.28 124.774 46.6952C125.046 45.8682 125.023 44.7673 124.674 41.7316C124.151 37.1905 123.811 35.7013 123.322 35.8054C123.101 35.8522 122.969 35.4466 122.969 34.7207C122.969 34.0381 122.734 33.2645 122.398 32.8403C122.084 32.4439 121.626 31.6493 121.381 31.0744C120.776 29.6536 119.783 28.791 119.253 29.2267C118.933 29.4904 118.78 29.209 118.492 27.8266C118.294 26.8748 117.806 25.6569 117.406 25.1198C117.007 24.5826 116.596 23.6981 116.493 23.1544C116.277 22.009 114.234 19.4982 114.214 20.3524C114.192 21.243 113.795 20.9243 112.538 19.007C111.34 17.1784 111.327 17.17 111.165 18.0447C111.013 18.8647 110.979 18.8845 110.682 18.327C110.507 17.997 110.186 17.0518 109.97 16.2266C109.554 14.639 109.061 13.7934 109.061 14.6663C109.061 15.4054 108.533 15.2925 108.289 14.5013C108.174 14.1298 107.587 12.9485 106.984 11.8758L105.886 9.9254L105.714 11.1256C105.546 12.2932 105.532 12.3055 105.204 11.5757L104.867 10.8256L104.837 11.7257L104.808 12.6259L104.193 11.8923L103.578 11.1589L103.772 11.9253C103.916 12.4948 103.771 12.914 103.206 13.5588L102.446 14.4263L102.619 12.7276C102.799 10.9522 102.581 9.47531 102.139 9.47531C101.997 9.47531 101.804 9.84678 101.71 10.3005C101.616 10.7542 101.321 11.3957 101.054 11.7257C100.597 12.2908 100.579 12.2355 100.757 10.7842C100.885 9.73756 100.817 9.03902 100.546 8.60874C100.327 8.26007 100.078 7.98642 99.9934 8.00052C99.9088 8.01432 99.3752 8.56163 98.8076 9.21636ZM118.791 30.5445C118.575 30.7597 118.434 30.7774 118.434 30.5895C118.434 30.1889 118.791 29.834 118.993 30.0344C119.079 30.1196 118.988 30.3492 118.791 30.5445ZM123.176 36.837C123.079 37.0762 123.007 37.0051 122.993 36.6555C122.98 36.3392 123.051 36.1622 123.152 36.2618C123.252 36.3614 123.263 36.6204 123.176 36.837Z" fill="#86B4B4"/>
</g>
<defs>
<clipPath id="clip0_266_5501">
<rect width="180" height="140" fill="white"/>
</clipPath>
</defs>
</svg>
