<svg width="180" height="140" viewBox="0 0 180 140" fill="none" xmlns="http://www.w3.org/2000/svg">
<g id="Frame 1597878156" clip-path="url(#clip0_316_369)">
<rect width="180" height="140" fill="#F6F8F8"/>
<path id="Screenshot 2023-08-01 at 15.54 1 (Traced)" fill-rule="evenodd" clip-rule="evenodd" d="M79.216 7.62686C73.2394 11.0981 70.9433 15.3678 71.6035 21.7836C71.8601 24.2804 71.7138 26.5439 71.2777 26.8141C70.8424 27.0834 70.4858 27.9609 70.4858 28.7628C70.4858 30.3325 67.439 32.6826 66.311 31.9836C65.9339 31.7503 64.4272 32.8001 62.9615 34.3166C59.4699 37.9293 57.7793 44.7551 57.4706 56.4827C57.2611 64.4544 57.4364 65.8344 58.8602 67.4186C60.4661 69.2061 60.4644 69.2319 58.7379 69.2319C55.9544 69.2319 55.9373 71.1068 58.6652 77.0131C61.4769 83.1012 64.0885 86.3786 66.1451 86.4009C67.8469 86.4198 71.353 94.3803 71.3461 98.2074C71.3435 99.7556 71.8601 102.268 72.4937 103.789C73.1744 105.423 73.3737 107.256 72.9811 108.265C72.616 109.205 72.3244 110.746 72.333 111.689C72.3432 112.675 72.6913 112.22 73.153 110.617C73.5943 109.084 74.2861 107.829 74.6906 107.829C75.0959 107.829 75.4089 107.347 75.3867 106.757C75.2456 102.937 75.7535 100.11 76.5813 100.11C77.2492 100.11 77.427 102.186 77.1577 106.852C76.7104 114.593 73.8021 121.778 70.9134 122.277C69.9728 122.439 67.8563 123.844 66.2101 125.398C62.0311 129.346 59.1783 130.617 46.9626 133.975C41.0861 135.59 34.971 137.535 33.3718 138.296C29.8854 139.955 24.6468 145.037 24.0457 147.343C23.6207 148.97 24.8076 149 89.8069 149C152.424 149 156 148.919 156 147.49C156 145.627 152.641 141.911 148.457 139.143C146.727 137.999 140.202 135.7 133.959 134.036C121.15 130.622 118.356 129.41 114.098 125.424C112.452 123.882 109.974 122.092 108.59 121.444C105.484 119.989 103.018 113.501 102.741 106.057C102.572 101.517 102.797 100.775 104.99 98.632L107.427 96.2501L105.631 99.8611C103.716 103.716 103.349 107.449 104.68 109.545C105.245 110.433 105.344 109.868 104.999 107.717C104.62 105.345 105.005 103.707 106.614 100.855C107.777 98.7941 109.569 94.792 110.599 91.9615C112.047 87.9765 113.065 86.5253 115.109 85.5286C116.942 84.6348 118.758 82.367 121.055 78.0981C124.422 71.8453 124.631 69.2319 121.763 69.2319C120.347 69.2319 120.406 68.8691 122.402 65.2872C124.989 60.6461 125.933 51.8904 124.444 46.3676C123.16 41.6098 118.556 34.9616 115.381 33.2796C113.348 32.2032 112.833 31.3798 112.901 29.3178C112.948 27.8854 113.428 25.8843 113.97 24.8705C114.51 23.8567 114.953 21.413 114.953 19.4394C114.953 16.4305 114.431 15.3266 111.716 12.6034C107.995 8.87227 102.587 7.04533 97.6178 7.84301C95.0558 8.25386 93.8295 7.98453 92.1218 6.63705C88.9826 4.16081 84.6068 4.49618 79.216 7.62686ZM91.0092 6.6259C91.8849 7.198 90.9348 7.29149 88.0162 6.9201C85.6646 6.62161 83.5806 6.23821 83.3839 6.06838C82.5348 5.33417 89.8514 5.86853 91.0092 6.6259ZM124.094 57.8671C123.879 58.693 123.703 58.0172 123.703 56.366C123.703 54.7149 123.879 54.039 124.094 54.865C124.309 55.691 124.309 57.0411 124.094 57.8671ZM123.234 61.6736C122.961 62.3572 122.758 62.1539 122.717 61.1547C122.68 60.2507 122.882 59.7446 123.166 60.0294C123.45 60.3141 123.481 61.0544 123.234 61.6736ZM74.7487 101.661C74.7385 104.021 74.5247 104.5 73.9064 103.541C72.8033 101.829 72.8033 97.2819 73.9064 97.9655C74.3767 98.2572 74.7556 99.9203 74.7487 101.661Z" fill="#86B4B4"/>
</g>
<defs>
<clipPath id="clip0_316_369">
<rect width="180" height="140" fill="white"/>
</clipPath>
</defs>
</svg>
