<svg width="250" height="58" viewBox="0 0 250 58" fill="none" xmlns="http://www.w3.org/2000/svg">
<g clip-path="url(#clip0_133_303)">
<path d="M75.708 41.0345L71.3804 31.875H64.1376L73.5016 49.7414H77.794L87.2654 31.875H80.1003L75.708 41.0345Z" fill="#4AC5B5"/>
<path d="M105.292 33.8602C104.414 32.9843 103.348 32.3118 102.171 31.892C100.841 31.4222 99.4351 31.1919 98.0215 31.2123C96.5902 31.191 95.1667 31.4212 93.818 31.892C92.6333 32.3099 91.5517 32.9681 90.6436 33.8239C89.7526 34.6838 89.0629 35.7237 88.6223 36.8716C88.1331 38.1572 87.8927 39.5212 87.9134 40.8934C87.8918 42.229 88.1437 43.5552 88.6538 44.7934C89.1315 45.9282 89.8509 46.9494 90.7639 47.7885C91.7115 48.6468 92.8285 49.3048 94.0457 49.7221C95.4014 50.1879 96.8296 50.418 98.2658 50.4018C103.278 50.4018 106.411 48.3585 107.665 44.2719H101.459C101.136 44.8055 100.672 45.2429 100.116 45.5374C99.5596 45.8319 98.9322 45.9724 98.301 45.9438C95.6998 45.9438 94.3991 44.5856 94.3991 41.8693H107.911V41.2077C107.932 39.7815 107.704 38.3623 107.237 37.0115C106.83 35.8349 106.166 34.7596 105.292 33.8602ZM94.5806 38.2218C94.6952 37.3839 95.1178 36.6161 95.7689 36.0628C96.4735 35.559 97.3241 35.2905 98.1957 35.2967C99.0674 35.3029 99.9139 35.5835 100.611 36.0973C101.279 36.6408 101.741 37.3891 101.923 38.2218H94.5806Z" fill="#4AC5B5"/>
<path d="M119.639 26.5137H113.218V31.8767H111.089V37.1361H113.218V49.7431H119.639V37.1361H123.293V31.8767H119.639V26.5137Z" fill="#4AC5B5"/>
<path d="M143.057 33.8602C142.179 32.9841 141.113 32.3117 139.936 31.892C138.606 31.4221 137.2 31.1918 135.786 31.2123C134.355 31.191 132.931 31.4212 131.583 31.892C130.398 32.3097 129.316 32.968 128.408 33.8239C127.518 34.6839 126.828 35.7238 126.387 36.8716C125.898 38.1572 125.658 39.5212 125.678 40.8934C125.657 42.229 125.909 43.5551 126.419 44.7934C126.897 45.928 127.616 46.9492 128.529 47.7885C129.476 48.6466 130.593 49.3047 131.81 49.7221C133.166 50.1879 134.594 50.4179 136.031 50.4018C141.044 50.4018 144.177 48.3585 145.43 44.2719H139.222C138.899 44.8055 138.435 45.2429 137.879 45.5374C137.323 45.8319 136.695 45.9724 136.064 45.9438C133.463 45.9438 132.162 44.5856 132.162 41.8693H145.674V41.2078C145.695 39.7815 145.467 38.3623 145 37.0116C144.593 35.835 143.93 34.7596 143.057 33.8602ZM132.345 38.2218C132.46 37.3839 132.883 36.6161 133.534 36.0628C134.238 35.559 135.089 35.2905 135.961 35.2967C136.832 35.3029 137.679 35.5835 138.376 36.0973C139.044 36.6408 139.506 37.3891 139.688 38.2218H132.345Z" fill="#4AC5B5"/>
<path d="M161.748 31.4917C160.532 31.4644 159.332 31.7588 158.272 32.344C157.244 32.9518 156.383 33.7964 155.762 34.8047V31.8788H149.341V49.7452H155.762V42.0742C155.663 40.7133 156.056 39.3616 156.873 38.2576C157.294 37.8052 157.815 37.4526 158.396 37.2263C158.976 37 159.602 36.9058 160.225 36.951C161.184 36.9436 162.132 37.1585 162.992 37.578V31.5535C162.764 31.5104 162.532 31.4873 162.3 31.4844L161.748 31.4917Z" fill="#4AC5B5"/>
<path d="M196.163 33.8264C195.53 33.0878 194.736 32.4983 193.84 32.1017C192.803 31.6712 191.684 31.4637 190.558 31.4929C189.48 31.4722 188.407 31.6573 187.4 32.0381C186.351 32.5149 185.437 33.2383 184.741 34.1444V31.8801H178.322V49.7465H184.743V40.2035C184.678 39.2203 184.988 38.2489 185.612 37.4774C185.933 37.1481 186.323 36.8916 186.755 36.7262C187.187 36.5607 187.65 36.4902 188.113 36.5197C188.499 36.5197 188.882 36.581 189.248 36.7014C189.61 36.8224 189.937 37.0254 190.205 37.2939C190.556 37.6567 190.796 38.1097 190.897 38.6006C191.042 39.3056 191.107 40.0241 191.091 40.7432V49.7628H197.512V38.4097C197.524 37.5535 197.428 36.6992 197.229 35.8655C197.041 35.1135 196.675 34.4151 196.163 33.8264Z" fill="#4AC5B5"/>
<path d="M215.265 33.6506C214.548 32.8894 213.675 32.2874 212.702 31.885C211.729 31.4825 210.68 31.2889 209.625 31.3172C208.354 31.3013 207.096 31.5567 205.936 32.0659C204.848 32.5483 203.871 33.2413 203.063 34.1032C202.247 34.9811 201.609 36.0037 201.183 37.1163C200.732 38.2767 200.503 39.509 200.509 40.751C200.495 42.0479 200.73 43.3358 201.201 44.5476C201.638 45.6714 202.294 46.7005 203.133 47.5771C203.954 48.4306 204.944 49.1108 206.041 49.5761C207.196 50.0605 208.44 50.3037 209.695 50.2904C210.762 50.3298 211.823 50.1197 212.791 49.6773C213.759 49.2349 214.606 48.5729 215.263 47.746V49.7306H221.719V31.8642H215.263L215.265 33.6506ZM215.141 42.3921C214.923 42.8688 214.623 43.3048 214.254 43.6806C213.882 44.0558 213.435 44.3521 212.942 44.5511C212.43 44.7602 211.882 44.8664 211.328 44.8637C210.762 44.8688 210.201 44.7625 209.678 44.5511C209.185 44.3524 208.738 44.0561 208.366 43.6806C207.595 42.8958 207.168 41.8452 207.178 40.7547C207.173 40.2218 207.281 39.6938 207.496 39.2045C207.706 38.7327 208.001 38.3018 208.366 37.9324C208.738 37.5572 209.185 37.2609 209.678 37.0618C210.201 36.8503 210.762 36.7441 211.328 36.7493C211.882 36.7464 212.43 36.8527 212.942 37.0618C213.435 37.2612 213.882 37.5574 214.254 37.9324C214.626 38.3128 214.926 38.7553 215.141 39.239C215.365 39.7381 215.48 40.2782 215.477 40.8238C215.481 41.3643 215.366 41.8992 215.141 42.3921Z" fill="#4AC5B5"/>
<path d="M238.169 31.4917C236.953 31.4644 235.752 31.7588 234.693 32.344C233.662 32.9491 232.797 33.7919 232.173 34.7993V31.8733H225.754V49.7398H232.173V42.0742C232.074 40.7133 232.467 39.3615 233.284 38.2576C233.706 37.8051 234.226 37.4524 234.807 37.2261C235.388 36.9997 236.013 36.9056 236.636 36.951C237.596 36.9436 238.544 37.1585 239.403 37.578V31.5535C239.175 31.5104 238.943 31.4873 238.711 31.4844L238.169 31.4917Z" fill="#4AC5B5"/>
<path d="M173.268 31.875H166.847V49.7414H173.268V31.875Z" fill="#4AC5B5"/>
<path d="M173.498 26.449C174.54 24.0755 173.852 21.5029 171.961 20.7029C170.071 19.9029 167.693 21.1785 166.652 23.552C165.61 25.9255 166.298 28.4981 168.189 29.2981C170.079 30.0981 172.457 28.8225 173.498 26.449Z" fill="#4AC5B5"/>
<path d="M249.359 31.875H242.938V49.7414H249.359V31.875Z" fill="#4AC5B5"/>
<path d="M246.27 29.6797C248.329 29.6797 249.998 27.5845 249.998 25C249.998 22.4155 248.329 20.3203 246.27 20.3203C244.212 20.3203 242.543 22.4155 242.543 25C242.543 27.5845 244.212 29.6797 246.27 29.6797Z" fill="#4AC5B5"/>
<path d="M55.6871 32.0827C59.6081 31.1739 62.0362 27.3163 61.1106 23.4665C60.1849 19.6168 56.256 17.2327 52.3351 18.1415C48.4141 19.0504 45.986 22.9079 46.9116 26.7577C47.8373 30.6074 51.7662 32.9915 55.6871 32.0827Z" fill="#4AC5B5"/>
<path d="M47.8791 14.7157C49.8902 10.1382 48.5651 5.17563 44.9192 3.63148C41.2734 2.08734 36.6876 4.54634 34.6765 9.12383C32.6654 13.7013 33.9905 18.6639 37.6364 20.208C41.2822 21.7522 45.868 19.2932 47.8791 14.7157Z" fill="#4AC5B5"/>
<path d="M16.2703 27.851C17.812 24.1966 16.0445 20.0069 12.3224 18.4932C8.60039 16.9794 4.33326 18.7148 2.79154 22.3693C1.24981 26.0238 3.01732 30.2135 6.73936 31.7272C10.4614 33.2409 14.7285 31.5055 16.2703 27.851Z" fill="#4AC5B5"/>
<path d="M25.9006 20.2068C29.5478 18.6636 30.8751 13.7003 28.8653 9.12108C26.8554 4.54181 22.2694 2.08059 18.6222 3.62378C14.975 5.16697 13.6476 10.1302 15.6575 14.7095C17.6674 19.2887 22.2533 21.75 25.9006 20.2068Z" fill="#4AC5B5"/>
<path d="M41.5506 26.325C40.37 24.8699 38.8704 23.6948 37.1635 22.8872C35.4566 22.0796 33.5862 21.6602 31.6914 21.6602C29.7966 21.6602 27.9262 22.0796 26.2193 22.8872C24.5124 23.6948 23.0129 24.8699 21.8323 26.325L13.1068 37.0819C11.6294 38.9037 10.7055 41.0978 10.4412 43.4121C10.1769 45.7264 10.583 48.0669 11.6128 50.1647C12.6427 52.2625 14.2544 54.0325 16.2629 55.2713C18.2714 56.51 20.5951 57.1672 22.9669 57.1674H40.4196C42.7915 57.1672 45.1152 56.51 47.1236 55.2713C49.1321 54.0325 50.7439 52.2625 51.7737 50.1647C52.8036 48.0669 53.2097 45.7264 52.9454 43.4121C52.6811 41.0978 51.7571 38.9037 50.2797 37.0819L41.5506 26.325ZM41.5506 42.7467C41.5501 43.0709 41.4187 43.3817 41.1852 43.611C40.9516 43.8402 40.6351 43.9692 40.3049 43.9697H35.1685V48.5131C35.1685 48.8457 35.0339 49.1646 34.7944 49.3998C34.5549 49.635 34.23 49.7671 33.8913 49.7671H29.9765C29.6378 49.7671 29.3129 49.635 29.0734 49.3998C28.8339 49.1646 28.6993 48.8457 28.6993 48.5131V43.9697H23.5629C23.2325 43.9697 22.9157 43.8409 22.6821 43.6115C22.4485 43.3821 22.3172 43.071 22.3172 42.7467V38.843C22.3172 38.5186 22.4485 38.2075 22.6821 37.9781C22.9157 37.7487 23.2325 37.6198 23.5629 37.6198H28.6993V33.0764C28.6993 32.9117 28.7324 32.7487 28.7966 32.5966C28.8608 32.4444 28.9548 32.3063 29.0734 32.1898C29.192 32.0734 29.3328 31.981 29.4877 31.9179C29.6427 31.8549 29.8088 31.8224 29.9765 31.8224H33.8913C34.059 31.8224 34.2251 31.8549 34.38 31.9179C34.535 31.981 34.6758 32.0734 34.7944 32.1898C34.913 32.3063 35.0071 32.4444 35.0712 32.5966C35.1354 32.7487 35.1685 32.9117 35.1685 33.0764V37.6198H40.3049C40.6351 37.6203 40.9516 37.7494 41.1852 37.9786C41.4187 38.2079 41.5501 38.5187 41.5506 38.843V42.7467Z" fill="#4AC5B5"/>
</g>
<defs>
<clipPath id="clip0_133_303">
<rect width="250" height="56.338" fill="white" transform="translate(0 0.830078)"/>
</clipPath>
</defs>
</svg>
